<?xml version="1.0" encoding="utf-8"?>
<!-- Generator: Adobe Illustrator 16.0.0, SVG Export Plug-In . SVG Version: 6.00 Build 0)  -->
<!DOCTYPE svg PUBLIC "-//W3C//DTD SVG 1.1//EN" "http://www.w3.org/Graphics/SVG/1.1/DTD/svg11.dtd">
<svg version="1.1" id="Layer_1" xmlns="http://www.w3.org/2000/svg" xmlns:xlink="http://www.w3.org/1999/xlink" x="0px" y="0px"
	 width="200px" height="50px" viewBox="0 0 200 50" enable-background="new 0 0 200 50" xml:space="preserve">
<g>
	<polygon fill="none" points="98.36,34.604 102.834,34.604 100.646,28.314 	"/>
	<polygon fill="none" points="145.482,34.604 149.957,34.604 147.77,28.314 	"/>
	<path fill="none" d="M13.144,31.793c0.043-0.098,0.094-0.209,0.151-0.329c0.357-0.813,0.729-1.58,1.115-2.293
		C13.936,30.005,13.515,30.882,13.144,31.793z"/>
	<path fill="none" d="M31.128,18.094c-1.289,0.153-2.557,0.417-3.791,0.789C28.655,18.531,29.912,18.28,31.128,18.094z"/>
	<path fill="#EFEFEF" d="M17.807,24.331c0.055-0.061,0.109-0.122,0.165-0.182C17.917,24.208,17.862,24.271,17.807,24.331z"/>
	<path fill="#EFEFEF" d="M12.92,32.346c0.122-0.303,0.249-0.592,0.375-0.882c-0.057,0.12-0.108,0.231-0.151,0.329
		C13.069,31.979,12.99,32.158,12.92,32.346z"/>
	<path fill="#EFEFEF" d="M12.92,32.346c0.07-0.188,0.15-0.367,0.224-0.553C12.99,32.143,12.92,32.346,12.92,32.346z"/>
	<path fill="#EFEFEF" d="M41.579,19.365c-3.453-1.3-7.024-1.679-10.451-1.271c-1.216,0.186-2.474,0.438-3.791,0.789
		c-5.35,1.612-10.044,5.215-12.927,10.288c-0.386,0.713-0.758,1.479-1.115,2.293c1.319-2.782,6.443-11.241,20.087-11.449
		c11.291-0.172,16.276,8.158,18.279,13.321l2.871-1.018C52.349,26.551,47.804,21.709,41.579,19.365z"/>
	<path fill="#CC1515" d="M14.41,29.171c2.883-5.073,7.577-8.676,12.927-10.288c1.234-0.372,2.502-0.636,3.791-0.789
		c3.426-0.408,6.998-0.029,10.451,1.271c6.225,2.344,10.77,7.186,12.953,12.953l4.81-1.704c-2.682-5.775-7.53-10.549-13.96-12.97
		c-9.896-3.726-20.658-0.817-27.411,6.506c-0.055,0.06-0.11,0.121-0.165,0.182c-1.933,2.139-3.525,4.643-4.663,7.462
		c-0.074,0.185-0.154,0.365-0.224,0.554c0.07-0.188,0.149-0.369,0.224-0.554C13.515,30.882,13.936,30.005,14.41,29.171z"/>
	<circle fill="#CC1515" cx="36.239" cy="40.567" r="2.85"/>
	<polygon points="61.068,34.592 60.34,32.777 43.806,38.275 39.814,39.604 39.942,40.152 43.864,39.121 	"/>
	<path fill="#C6C6C6" d="M36.842,25.855c14.647,4.127-12.207-11.684-20.832,7.252C16.01,33.107,22.195,21.729,36.842,25.855z"/>
	<path fill="#C6C6C6" d="M17.893,34.682c0,0,5.108-9.398,17.205-5.99C47.193,32.1,25.016,19.042,17.893,34.682z"/>
	<path d="M36.067,15.392c0.603,0,1.091-0.489,1.091-1.091v-2.692c0-0.603-0.489-1.091-1.091-1.091s-1.091,0.489-1.091,1.091V14.3
		C34.976,14.903,35.465,15.392,36.067,15.392z"/>
	<path d="M63.409,26.85l-2.529,0.924c-0.566,0.207-0.857,0.834-0.65,1.399s0.833,0.856,1.399,0.649l2.529-0.924
		c0.566-0.207,0.858-0.834,0.65-1.399C64.601,26.934,63.975,26.643,63.409,26.85z"/>
	<path d="M11.739,28.537l-2.447-1.123c-0.547-0.252-1.196-0.012-1.447,0.537c-0.252,0.547-0.011,1.195,0.537,1.447l2.447,1.123
		c0.548,0.25,1.196,0.01,1.447-0.539C12.527,29.436,12.287,28.789,11.739,28.537z"/>
	<path fill="#CC1515" d="M82.03,34.229l-4.821-11.232h-3.902v17.845c0,0.281,0.149,0.468,0.448,0.56
		c0.298,0.092,0.712,0.138,1.243,0.138c0.53,0,0.944-0.046,1.243-0.138c0.298-0.092,0.447-0.285,0.447-0.584v-8.973
		c0-0.479-0.021-0.978-0.062-1.49c-0.042-0.515-0.087-0.994-0.137-1.441h0.199l3.156,7.58c0.166,0.432,0.439,0.771,0.82,1.02
		c0.382,0.248,0.837,0.372,1.367,0.372c0.53,0,0.986-0.124,1.367-0.372s0.654-0.588,0.82-1.02l3.156-7.58h0.199
		c-0.017,0.215-0.037,0.46-0.063,0.732c-0.024,0.272-0.046,0.547-0.062,0.819c-0.018,0.272-0.034,0.539-0.05,0.796
		c-0.017,0.258-0.025,0.469-0.025,0.635v8.922c0,0.299,0.149,0.492,0.447,0.584c0.299,0.092,0.713,0.138,1.243,0.138
		s0.944-0.046,1.242-0.138c0.299-0.092,0.447-0.277,0.447-0.56V22.996h-3.901L82.03,34.229z"/>
	<path fill="#CC1515" d="M99.279,22.996l-6.735,18.316h3.479l1.317-3.679h6.537l1.242,3.679h3.506l-6.711-18.316H99.279z
		 M98.36,34.604l2.287-6.289l2.188,6.289H98.36z"/>
	<path fill="#CC1515" d="M121.424,35.57l-6.934-12.574h-4.053v17.845c0,0.281,0.149,0.468,0.446,0.56
		c0.3,0.092,0.714,0.138,1.244,0.138c0.529,0,0.942-0.046,1.242-0.138c0.299-0.092,0.446-0.285,0.446-0.584V28.639l7.357,12.676
		h3.629V22.996h-3.381V35.57H121.424z"/>
	<path fill="#CC1515" d="M140.598,25.63c0.092-0.265,0.137-0.638,0.137-1.118s-0.045-0.854-0.137-1.118
		c-0.09-0.265-0.303-0.397-0.633-0.397H126.99v3.03h4.996v14.813c0,0.281,0.152,0.468,0.459,0.56s0.725,0.138,1.256,0.138
		c0.529,0,0.949-0.046,1.256-0.138s0.459-0.285,0.459-0.584V26.027h4.549C140.295,26.027,140.508,25.896,140.598,25.63z"/>
	<path fill="#CC1515" d="M146.402,22.996l-6.736,18.316h3.48l1.315-3.679H151l1.242,3.679h3.506l-6.711-18.316H146.402z
		 M145.482,34.604l2.287-6.289l2.188,6.289H145.482z"/>
	<path fill="#CC1515" d="M168.547,35.57l-6.934-12.574h-4.053v17.845c0,0.281,0.149,0.468,0.446,0.56
		c0.3,0.092,0.714,0.138,1.244,0.138c0.528,0,0.942-0.046,1.242-0.138c0.299-0.092,0.446-0.285,0.446-0.584V28.639l7.357,12.676
		h3.629V22.996h-3.381V35.57H168.547z"/>
	<path fill="#CC1515" d="M182.24,30.626v3.032h4.227v4.175c0,0.299-0.158,0.448-0.473,0.448h-2.313
		c-0.943,0-1.789-0.153-2.535-0.461c-0.744-0.307-1.375-0.74-1.89-1.305c-0.514-0.563-0.905-1.229-1.18-2
		c-0.274-0.771-0.41-1.619-0.41-2.549c0-0.861,0.142-1.678,0.422-2.447c0.281-0.771,0.69-1.438,1.229-2.002
		c0.539-0.563,1.201-1.01,1.988-1.342c0.787-0.33,1.687-0.496,2.697-0.496c0.695,0,1.342,0.053,1.938,0.161
		c0.599,0.107,1.179,0.235,1.74,0.386c0.299,0.1,0.531,0.086,0.697-0.037c0.164-0.125,0.363-0.451,0.596-0.981
		c0.215-0.514,0.314-0.879,0.299-1.094c-0.018-0.216-0.19-0.397-0.522-0.547c-0.597-0.281-1.283-0.505-2.063-0.671
		c-0.779-0.166-1.682-0.249-2.709-0.249c-1.309,0-2.551,0.199-3.729,0.597c-1.176,0.397-2.211,0.99-3.105,1.777
		c-0.894,0.788-1.604,1.761-2.125,2.92c-0.522,1.16-0.783,2.502-0.783,4.025c0,1.458,0.224,2.768,0.671,3.928
		c0.446,1.16,1.081,2.142,1.901,2.944c0.82,0.804,1.814,1.417,2.982,1.841c1.168,0.422,2.473,0.633,3.914,0.633h2.586
		c0.314,0,0.678-0.111,1.094-0.336c0.412-0.224,0.836-0.533,1.268-0.932c0.412-0.398,0.726-0.8,0.933-1.206
		c0.207-0.405,0.312-0.741,0.312-1.007v-7.207L182.24,30.626L182.24,30.626z"/>
	<g>
		<path d="M77.486,10.492c-0.143-0.122-0.292-0.259-0.445-0.414c-0.155-0.153-0.309-0.315-0.462-0.486
			c-0.153-0.172-0.3-0.351-0.439-0.536c-0.138-0.186-0.258-0.372-0.357-0.557C75.66,8.699,75.524,8.9,75.374,9.104
			c-0.15,0.204-0.305,0.402-0.465,0.595c-0.161,0.193-0.326,0.371-0.494,0.536c-0.167,0.165-0.329,0.31-0.487,0.438
			c-0.1,0.086-0.205,0.115-0.316,0.086s-0.252-0.132-0.423-0.312c-0.085-0.085-0.157-0.16-0.214-0.225
			c-0.058-0.064-0.096-0.123-0.118-0.176c-0.021-0.054-0.021-0.105,0-0.155c0.022-0.05,0.064-0.108,0.128-0.172
			c0.357-0.321,0.681-0.647,0.97-0.98c0.289-0.332,0.516-0.644,0.68-0.937c0.129-0.236,0.215-0.444,0.258-0.627
			c0.042-0.181,0.064-0.401,0.064-0.658V5.81h1.521v0.707c0,0.165,0.017,0.335,0.054,0.514c0.035,0.179,0.093,0.347,0.171,0.504
			c0.092,0.179,0.208,0.361,0.344,0.546c0.134,0.186,0.277,0.368,0.427,0.546c0.15,0.178,0.301,0.346,0.457,0.503
			c0.153,0.158,0.293,0.292,0.422,0.407c0.101,0.101,0.141,0.201,0.124,0.3c-0.018,0.1-0.113,0.242-0.284,0.429
			c-0.164,0.178-0.296,0.286-0.396,0.321C77.695,10.624,77.592,10.591,77.486,10.492z M78.288,15.708
			c-0.371,0-0.718-0.059-1.044-0.177c-0.324-0.118-0.608-0.282-0.851-0.493c-0.243-0.211-0.434-0.458-0.574-0.745
			c-0.14-0.286-0.209-0.596-0.209-0.932c0-0.336,0.07-0.646,0.209-0.932c0.14-0.286,0.331-0.533,0.574-0.744
			c0.242-0.211,0.526-0.375,0.851-0.494c0.326-0.117,0.673-0.176,1.044-0.176c0.372,0,0.72,0.06,1.044,0.176
			c0.326,0.119,0.61,0.282,0.853,0.494c0.242,0.211,0.434,0.458,0.574,0.744c0.138,0.286,0.208,0.596,0.208,0.932
			c0,0.335-0.07,0.646-0.208,0.932c-0.14,0.286-0.332,0.534-0.574,0.745s-0.526,0.375-0.853,0.493
			C79.008,15.649,78.659,15.708,78.288,15.708z M78.288,14.519c0.387,0,0.687-0.112,0.9-0.337c0.214-0.225,0.322-0.498,0.322-0.819
			s-0.108-0.595-0.322-0.819c-0.213-0.225-0.513-0.337-0.9-0.337c-0.385,0-0.685,0.112-0.899,0.337
			c-0.215,0.225-0.321,0.498-0.321,0.819s0.106,0.594,0.321,0.819C77.603,14.407,77.902,14.519,78.288,14.519z M81.203,10.716
			c0,0.128-0.064,0.216-0.193,0.263c-0.129,0.046-0.307,0.069-0.535,0.069s-0.408-0.023-0.535-0.069
			c-0.129-0.046-0.194-0.134-0.194-0.263V8.349h-1.907V7.117h1.907v-1.5h1.458V10.716z"/>
		<path d="M85.241,10.845c-0.364,0-0.707-0.064-1.028-0.193c-0.321-0.129-0.602-0.305-0.841-0.53
			c-0.24-0.225-0.429-0.49-0.568-0.793c-0.138-0.303-0.208-0.626-0.208-0.97c0-0.342,0.07-0.666,0.208-0.969
			c0.14-0.303,0.329-0.567,0.568-0.792c0.239-0.225,0.52-0.403,0.841-0.536c0.321-0.132,0.664-0.198,1.028-0.198
			c0.365,0,0.707,0.066,1.029,0.198c0.321,0.133,0.602,0.311,0.84,0.536c0.24,0.225,0.427,0.489,0.563,0.792
			c0.136,0.303,0.204,0.627,0.204,0.969c0,0.344-0.068,0.667-0.204,0.97c-0.135,0.303-0.323,0.568-0.563,0.793
			c-0.239,0.225-0.52,0.401-0.84,0.53C85.948,10.781,85.605,10.845,85.241,10.845z M85.241,7.084c-0.192,0-0.364,0.034-0.514,0.102
			s-0.278,0.161-0.385,0.278c-0.107,0.118-0.189,0.253-0.247,0.408c-0.058,0.153-0.085,0.316-0.085,0.486
			c0,0.172,0.028,0.335,0.085,0.488c0.057,0.154,0.139,0.288,0.247,0.401c0.107,0.115,0.235,0.206,0.385,0.273
			s0.322,0.101,0.514,0.101c0.193,0,0.365-0.033,0.515-0.101s0.276-0.159,0.38-0.273c0.104-0.114,0.184-0.248,0.241-0.401
			c0.058-0.153,0.086-0.316,0.086-0.488c0-0.17-0.029-0.333-0.086-0.486c-0.057-0.154-0.137-0.29-0.241-0.408
			c-0.104-0.118-0.23-0.21-0.38-0.278S85.434,7.084,85.241,7.084z M90.779,14.165c0.121,0,0.198,0.056,0.23,0.167
			s0.048,0.259,0.048,0.445c0,0.2-0.016,0.35-0.048,0.45s-0.109,0.15-0.23,0.15h-4.853c-0.143,0-0.298-0.051-0.466-0.155
			c-0.168-0.104-0.31-0.216-0.423-0.337c-0.122-0.115-0.227-0.245-0.316-0.391c-0.09-0.146-0.134-0.27-0.134-0.369v-2.282h1.458
			v2.089c0,0.157,0.082,0.235,0.246,0.235H90.779z M90.844,12.13c0,0.143-0.071,0.232-0.214,0.268s-0.315,0.053-0.515,0.053
			c-0.228,0-0.407-0.022-0.535-0.07c-0.129-0.045-0.193-0.13-0.193-0.251V5.617h1.458V12.13z"/>
		<path d="M98.17,9.667c-0.129,0-0.277-0.058-0.444-0.172c-0.168-0.114-0.312-0.236-0.434-0.364
			c-0.107-0.107-0.205-0.227-0.295-0.358c-0.089-0.133-0.133-0.256-0.133-0.37V5.606h1.446v0.835h3.546V5.606h1.446v3.246
			c0,0.25-0.063,0.448-0.188,0.595c-0.126,0.146-0.316,0.22-0.574,0.22h-1.714v0.781h3.579c0.142,0,0.233,0.045,0.272,0.134
			s0.059,0.237,0.059,0.445s-0.02,0.355-0.059,0.444s-0.131,0.134-0.272,0.134h-8.871v-1.158h3.814V9.667H98.17z M101.92,13.522
			h-5.164v-1.178h6.021c0.222,0,0.377,0.042,0.466,0.128c0.09,0.086,0.134,0.243,0.134,0.472v2.324c0,0.143-0.071,0.229-0.214,0.257
			c-0.144,0.029-0.314,0.043-0.515,0.043c-0.229,0-0.407-0.018-0.535-0.054c-0.129-0.035-0.192-0.117-0.192-0.246V13.522z
			 M101.855,8.499V7.609H98.31v0.707c0,0.079,0.014,0.128,0.042,0.15s0.072,0.032,0.128,0.032H101.855z"/>
		<path d="M110.938,6.281c0.122,0,0.201,0.047,0.236,0.14c0.036,0.093,0.054,0.24,0.054,0.439c0,0.208-0.018,0.359-0.054,0.455
			c-0.035,0.097-0.114,0.145-0.236,0.145h-5.387V6.281h2.056V5.328h1.468v0.953H110.938z M106.076,9.495
			c0-0.264,0.057-0.503,0.171-0.718c0.114-0.214,0.271-0.398,0.472-0.552c0.199-0.154,0.439-0.271,0.718-0.353
			c0.278-0.083,0.585-0.124,0.921-0.124c0.329,0,0.634,0.041,0.916,0.124c0.282,0.082,0.523,0.199,0.723,0.353
			c0.2,0.154,0.357,0.337,0.472,0.552c0.114,0.215,0.171,0.454,0.171,0.718s-0.057,0.503-0.171,0.717s-0.271,0.398-0.472,0.552
			c-0.199,0.154-0.44,0.271-0.723,0.353c-0.282,0.083-0.587,0.124-0.916,0.124c-0.336,0-0.643-0.041-0.921-0.124
			c-0.278-0.082-0.519-0.199-0.718-0.353c-0.2-0.153-0.357-0.337-0.472-0.552S106.076,9.759,106.076,9.495z M108.347,15.483
			c-0.143,0-0.291-0.051-0.444-0.15c-0.154-0.101-0.291-0.211-0.412-0.333c-0.122-0.114-0.228-0.241-0.316-0.381
			c-0.089-0.139-0.134-0.258-0.134-0.358v-2.528h1.445v0.761h3.364v-0.761h1.446v2.967c0,0.25-0.063,0.442-0.188,0.578
			c-0.125,0.136-0.319,0.204-0.584,0.204H108.347z M109.225,9.484c0-0.199-0.08-0.355-0.24-0.466s-0.369-0.166-0.627-0.166
			c-0.257,0-0.466,0.055-0.627,0.166c-0.16,0.111-0.24,0.267-0.24,0.466c0,0.208,0.08,0.368,0.24,0.483
			c0.161,0.113,0.37,0.171,0.627,0.171c0.258,0,0.467-0.058,0.627-0.171C109.145,9.852,109.225,9.691,109.225,9.484z M111.85,14.273
			v-0.589h-3.364v0.428c0,0.107,0.048,0.162,0.14,0.162H111.85z M111.957,5.617h1.457v1.928h1.617v1.232h-1.617v2.11
			c0,0.129-0.064,0.216-0.193,0.263c-0.129,0.046-0.308,0.07-0.536,0.07c-0.228,0-0.406-0.023-0.535-0.07
			c-0.129-0.047-0.192-0.134-0.192-0.263V5.617z"/>
		<path d="M122.615,7.931c0-0.143-0.061-0.214-0.182-0.214h-3.214V6.464h3.514c0.164,0,0.312,0.063,0.444,0.192
			c0.133,0.129,0.273,0.29,0.424,0.483c0.271,0.342,0.406,0.624,0.406,0.846c0,0.115-0.006,0.225-0.016,0.332
			c-0.011,0.107-0.023,0.214-0.038,0.322h1.446V5.724h1.479v8.849c0,0.12-0.064,0.203-0.193,0.246
			c-0.128,0.043-0.313,0.064-0.556,0.064c-0.229,0-0.407-0.02-0.536-0.059s-0.193-0.12-0.193-0.241V9.892h-1.821
			c-0.028,0.057-0.053,0.108-0.074,0.155c-0.022,0.046-0.047,0.094-0.075,0.145c-0.172,0.321-0.4,0.636-0.686,0.942
			c-0.286,0.308-0.594,0.595-0.921,0.862c-0.329,0.269-0.661,0.506-0.997,0.713c-0.335,0.207-0.639,0.368-0.911,0.481
			c-0.128,0.058-0.227,0.059-0.293,0.005c-0.068-0.053-0.167-0.187-0.295-0.401c-0.122-0.201-0.202-0.351-0.241-0.45
			c-0.04-0.1,0.012-0.19,0.154-0.269c0.201-0.113,0.419-0.242,0.654-0.385s0.467-0.3,0.696-0.471
			c0.229-0.172,0.448-0.354,0.658-0.547c0.211-0.192,0.398-0.393,0.563-0.6h-2.592V8.842h3.224c0.058-0.165,0.101-0.338,0.129-0.52
			C122.602,8.14,122.615,8.01,122.615,7.931z"/>
		<path d="M137.26,11.156c0.142,0,0.233,0.053,0.272,0.161c0.039,0.106,0.059,0.264,0.059,0.471c0,0.208-0.02,0.362-0.059,0.466
			c-0.039,0.104-0.131,0.155-0.272,0.155h-1.79v2.4c0,0.121-0.063,0.203-0.188,0.246c-0.125,0.043-0.309,0.064-0.551,0.064
			c-0.229,0-0.405-0.019-0.531-0.059c-0.125-0.039-0.188-0.12-0.188-0.241v-2.41h-2.078v2.4c0,0.121-0.062,0.203-0.188,0.246
			c-0.125,0.043-0.309,0.064-0.551,0.064c-0.229,0-0.405-0.019-0.531-0.059c-0.124-0.039-0.188-0.12-0.188-0.241v-2.41h-2.089
			v-1.253H137.26z M131.003,10.17c-0.136,0-0.289-0.057-0.461-0.172c-0.171-0.113-0.314-0.232-0.429-0.353
			c-0.114-0.114-0.218-0.238-0.311-0.37c-0.092-0.132-0.139-0.249-0.139-0.348V6.035h6.545v3.332c0,0.25-0.061,0.447-0.183,0.589
			c-0.121,0.142-0.31,0.214-0.567,0.214H131.003z M131.143,8.703c0,0.092,0.02,0.155,0.059,0.187
			c0.039,0.033,0.104,0.049,0.198,0.049h3.332V7.267h-3.589V8.703z"/>
		<path d="M143.837,11.306c0.121,0,0.199,0.055,0.235,0.166c0.036,0.111,0.053,0.267,0.053,0.466c0,0.208-0.017,0.362-0.053,0.466
			c-0.036,0.104-0.114,0.156-0.235,0.156h-3.804c-0.143,0-0.3-0.054-0.471-0.161c-0.172-0.107-0.318-0.221-0.439-0.342
			c-0.114-0.122-0.218-0.256-0.312-0.402c-0.092-0.146-0.138-0.272-0.138-0.381V6.464h1.478v4.595c0,0.165,0.079,0.247,0.236,0.247
			H143.837z M146.269,14.573c0,0.12-0.064,0.203-0.193,0.246c-0.129,0.043-0.314,0.064-0.557,0.064c-0.229,0-0.407-0.02-0.536-0.059
			c-0.128-0.039-0.192-0.12-0.192-0.241V5.724h1.479V14.573z"/>
		<path d="M149.471,7.664V8.97h2.967c0.122,0,0.201,0.053,0.236,0.161c0.036,0.107,0.054,0.26,0.054,0.461
			c0,0.207-0.018,0.364-0.054,0.471c-0.035,0.107-0.114,0.161-0.236,0.161h-2.967v1.049c0,0.165,0.079,0.248,0.235,0.248h3.289
			c0.122,0,0.2,0.053,0.236,0.161c0.035,0.106,0.053,0.261,0.053,0.46c0,0.208-0.018,0.365-0.053,0.471
			c-0.036,0.108-0.114,0.161-0.236,0.161h-3.643c-0.143,0-0.3-0.053-0.471-0.161c-0.172-0.106-0.318-0.221-0.439-0.342
			c-0.114-0.122-0.218-0.254-0.311-0.397c-0.093-0.143-0.14-0.268-0.14-0.375V6.41h4.5c0.121,0,0.199,0.054,0.235,0.161
			c0.035,0.107,0.054,0.262,0.054,0.46c0,0.207-0.019,0.364-0.054,0.472c-0.036,0.106-0.114,0.161-0.235,0.161H149.471z
			 M155.909,14.573c0,0.12-0.064,0.203-0.193,0.246c-0.128,0.043-0.314,0.064-0.557,0.064c-0.229,0-0.407-0.02-0.536-0.059
			c-0.128-0.039-0.192-0.12-0.192-0.241V5.724h1.479V14.573z"/>
		<path d="M169.609,9.613c0.122,0,0.203,0.039,0.242,0.117s0.059,0.22,0.059,0.424c0,0.206-0.02,0.345-0.059,0.419
			c-0.039,0.074-0.12,0.111-0.242,0.111h-8.901V9.613H169.609z M167.425,6.73v1.179h0.985c0.143,0,0.233,0.044,0.273,0.129
			c0.039,0.085,0.059,0.232,0.059,0.439c0,0.207-0.02,0.352-0.059,0.434c-0.04,0.083-0.131,0.123-0.273,0.123h-6.556V7.909h1.093
			V6.73h-1.093V5.606h6.556c0.143,0,0.233,0.043,0.273,0.128c0.039,0.085,0.059,0.232,0.059,0.439c0,0.208-0.02,0.352-0.059,0.435
			c-0.04,0.082-0.131,0.122-0.273,0.122H167.425z M163.118,15.483c-0.122,0-0.244-0.038-0.369-0.113
			c-0.125-0.075-0.238-0.163-0.337-0.262c-0.123-0.122-0.224-0.241-0.306-0.359c-0.083-0.118-0.124-0.227-0.124-0.326v-1.597h5.089
			v-0.471h-5.089v-1.093h6.096c0.165,0,0.28,0.033,0.349,0.097c0.067,0.063,0.102,0.175,0.102,0.332v2.208h-5.088v0.331
			c0,0.107,0.05,0.161,0.149,0.161h4.917c0.114,0,0.186,0.045,0.215,0.134c0.027,0.089,0.043,0.227,0.043,0.412
			s-0.016,0.324-0.043,0.413c-0.029,0.089-0.101,0.134-0.215,0.134H163.118z M166,6.73h-1.628v1.179H166V6.73z"/>
		<path d="M172.309,9.259c0,0.165,0.079,0.247,0.235,0.247h2.378c0.122,0,0.201,0.044,0.236,0.134
			c0.036,0.09,0.054,0.234,0.054,0.434c0,0.207-0.018,0.357-0.054,0.45c-0.035,0.093-0.114,0.139-0.236,0.139h-2.678
			c-0.143,0-0.3-0.053-0.471-0.16c-0.172-0.107-0.318-0.222-0.439-0.343c-0.114-0.121-0.218-0.255-0.311-0.401
			s-0.139-0.273-0.139-0.38V7.653h2.41V6.967h-2.41V5.81h3.299c0.157,0,0.28,0.039,0.369,0.118c0.09,0.079,0.134,0.2,0.134,0.364
			v2.517h-2.378V9.259z M178.693,15.439c-0.2-0.085-0.424-0.193-0.669-0.326c-0.247-0.133-0.495-0.283-0.745-0.45
			c-0.25-0.167-0.487-0.35-0.712-0.546s-0.417-0.402-0.573-0.616c-0.144,0.208-0.331,0.411-0.563,0.611
			c-0.232,0.2-0.479,0.388-0.739,0.563c-0.261,0.175-0.518,0.332-0.771,0.472c-0.253,0.139-0.473,0.252-0.658,0.337
			c-0.101,0.042-0.195,0.036-0.284-0.021c-0.089-0.058-0.194-0.201-0.315-0.429c-0.101-0.193-0.174-0.341-0.22-0.444
			c-0.048-0.104-0.01-0.188,0.112-0.252c0.178-0.093,0.378-0.198,0.6-0.316c0.222-0.117,0.444-0.25,0.67-0.396
			c0.225-0.146,0.439-0.305,0.643-0.477c0.203-0.172,0.373-0.353,0.509-0.547c0.092-0.135,0.157-0.269,0.192-0.401
			c0.036-0.132,0.054-0.281,0.054-0.445V11.37h1.489v0.428c0,0.128,0.014,0.268,0.043,0.417c0.028,0.15,0.1,0.311,0.214,0.482
			c0.114,0.165,0.262,0.327,0.444,0.487c0.183,0.161,0.381,0.314,0.595,0.46s0.434,0.283,0.659,0.408
			c0.225,0.124,0.438,0.233,0.637,0.326c0.129,0.064,0.181,0.143,0.155,0.235c-0.024,0.093-0.098,0.247-0.22,0.461
			c-0.114,0.207-0.206,0.331-0.278,0.37C178.89,15.485,178.801,15.483,178.693,15.439z M177.976,5.617h1.403v5.838
			c0,0.121-0.061,0.2-0.183,0.235c-0.121,0.036-0.296,0.054-0.524,0.054c-0.222,0-0.393-0.019-0.515-0.054
			c-0.121-0.036-0.182-0.114-0.182-0.235V8.724h-0.846v1.874c0,0.122-0.058,0.201-0.172,0.236s-0.286,0.053-0.515,0.053
			c-0.221,0-0.391-0.018-0.508-0.053c-0.119-0.036-0.177-0.114-0.177-0.236V5.67h1.371v1.821h0.846V5.617z"/>
		<path d="M181.779,9.163V7.995h1.092v-1.22h-1.092V5.606h6.556c0.143,0,0.233,0.046,0.272,0.139s0.06,0.243,0.06,0.45
			c0,0.208-0.021,0.356-0.06,0.445s-0.13,0.134-0.272,0.134h-0.985v1.22h0.985c0.143,0,0.233,0.047,0.272,0.14
			c0.039,0.093,0.06,0.243,0.06,0.45c0,0.208-0.021,0.356-0.06,0.445c-0.039,0.09-0.13,0.134-0.272,0.134h-2.411v0.845h3.579
			c0.142,0,0.233,0.047,0.272,0.14c0.039,0.093,0.059,0.243,0.059,0.45c0,0.208-0.02,0.356-0.059,0.445
			c-0.039,0.09-0.131,0.134-0.272,0.134h-8.87v-1.168h3.813V9.163H181.779z M181.918,11.937h6.534v2.743
			c0,0.25-0.062,0.446-0.188,0.589c-0.124,0.143-0.315,0.215-0.572,0.215h-4.468c-0.129,0-0.276-0.051-0.444-0.15
			c-0.168-0.101-0.313-0.215-0.434-0.344c-0.107-0.106-0.205-0.233-0.295-0.38c-0.089-0.146-0.134-0.276-0.134-0.391V11.937z
			 M187.006,14.315v-1.21h-3.642v1.029c0,0.079,0.015,0.128,0.043,0.15c0.028,0.021,0.07,0.031,0.128,0.031H187.006z M185.924,6.774
			h-1.627v1.22h1.627V6.774z"/>
	</g>
</g>
</svg>
