<?xml version="1.0" encoding="utf-8"?>
<!DOCTYPE svg PUBLIC "-//W3C//DTD SVG 1.1//EN" "http://www.w3.org/Graphics/SVG/1.1/DTD/svg11.dtd">
<svg viewBox="0 0 1000 1000" version="1.1"
	 xmlns="http://www.w3.org/2000/svg">

	<g class="sprite" id="up" stroke="none" stroke-width="1" fill="none">
		<rect stroke="none" stroke-width="52.0833333" fill="#FFFFFF" x="26.0416667" y="26.0416667" width="947.916667"
			  height="614.916667"></rect>
		<path
			d="M490.154608,367.79726 C490.154608,399.975503 481.147843,423.886908 463.134044,439.532192 C445.120245,455.177475 420.212649,463 388.41051,463 C356.163586,463 331.200393,455.232954 313.520183,439.69863 C295.839973,424.164306 287,400.197422 287,367.79726 L287,220 L339.373191,220 L339.373191,367.79726 C339.373191,374.232909 339.929164,380.557503 341.041127,386.771233 C342.15309,392.984963 344.488177,398.477373 348.046458,403.24863 C351.60474,408.019887 356.552901,411.90341 362.891089,414.899315 C369.229278,417.89522 377.735666,419.393151 388.41051,419.393151 C407.091487,419.393151 419.990063,415.232233 427.106626,406.910274 C434.223189,398.588315 437.781417,385.550774 437.781417,367.79726 L437.781417,220 L490.154608,220 L490.154608,367.79726 Z M587.562072,331.846575 L628.259711,331.846575 C634.26431,331.846575 640.046431,331.402744 645.606245,330.515068 C651.16606,329.627393 656.058623,327.907547 660.284082,325.355479 C664.509541,322.803412 667.900977,319.197284 670.458492,314.536986 C673.016007,309.876689 674.294745,303.77401 674.294745,296.228767 C674.294745,288.683524 673.016007,282.580845 670.458492,277.920548 C667.900977,273.260251 664.509541,269.654122 660.284082,267.102055 C656.058623,264.549987 651.16606,262.830141 645.606245,261.942466 C640.046431,261.05479 634.26431,260.610959 628.259711,260.610959 L587.562072,260.610959 L587.562072,331.846575 Z M535.18888,220 L642.60396,220 C657.504263,220 670.18045,222.163677 680.632902,226.491096 C691.085353,230.818515 699.591742,236.532841 706.152323,243.634247 C712.712904,250.735652 717.494273,258.835571 720.496573,267.934247 C723.498873,277.032922 725,286.464335 725,296.228767 C725,305.771281 723.498873,315.147214 720.496573,324.356849 C717.494273,333.566484 712.712904,341.721882 706.152323,348.823288 C699.591742,355.924693 691.085353,361.639019 680.632902,365.966438 C670.18045,370.293857 657.504263,372.457534 642.60396,372.457534 L587.562072,372.457534 L587.562072,457.673973 L535.18888,457.673973 L535.18888,220 Z"
			fill="#FF671C"></path>
	</g>

</svg>
